<?xml version="1.0" encoding="UTF-8" standalone="no"?>
<!-- Created with Inkscape (http://www.inkscape.org/) -->

<svg
   xmlns:dc="http://purl.org/dc/elements/1.1/"
   xmlns:cc="http://creativecommons.org/ns#"
   xmlns:rdf="http://www.w3.org/1999/02/22-rdf-syntax-ns#"
   xmlns:svg="http://www.w3.org/2000/svg"
   xmlns="http://www.w3.org/2000/svg"
   xmlns:sodipodi="http://sodipodi.sourceforge.net/DTD/sodipodi-0.dtd"
   xmlns:inkscape="http://www.inkscape.org/namespaces/inkscape"
   version="1.1"
   id="svg2"
   width="235"
   height="90"
   viewBox="0 0 235 90"
   sodipodi:docname="excelsior.svg"
   inkscape:export-filename="C:\Users\BB\Desktop\Responsive Design 2\Design Systems - ToolShed\billy-barkhurst-design-system-6\images\excelsior3.png"
   inkscape:export-xdpi="96"
   inkscape:export-ydpi="96"
   inkscape:version="0.92.4 (5da689c313, 2019-01-14)">
  <metadata
     id="metadata8">
    <rdf:RDF>
      <cc:Work
         rdf:about="">
        <dc:format>image/svg+xml</dc:format>
        <dc:type
           rdf:resource="http://purl.org/dc/dcmitype/StillImage" />
        <dc:title></dc:title>
      </cc:Work>
    </rdf:RDF>
  </metadata>
  <defs
     id="defs6" />
  <sodipodi:namedview
     pagecolor="#ffffff"
     bordercolor="#666666"
     borderopacity="1"
     objecttolerance="10"
     gridtolerance="10"
     guidetolerance="10"
     inkscape:pageopacity="0"
     inkscape:pageshadow="2"
     inkscape:window-width="1600"
     inkscape:window-height="837"
     id="namedview4"
     showgrid="false"
     inkscape:zoom="1.6561404"
     inkscape:cx="161.06711"
     inkscape:cy="8.7168557"
     inkscape:window-x="-8"
     inkscape:window-y="-8"
     inkscape:window-maximized="1"
     inkscape:current-layer="layer2" />
  <g
     inkscape:groupmode="layer"
     id="layer1"
     inkscape:label="Layer 1"
     transform="translate(0,-195)" />
  <g
     inkscape:groupmode="layer"
     id="layer2"
     inkscape:label="Layer 2"
     transform="translate(0,-195)">
    <g
       id="g977">
      <rect
         y="222.84521"
         x="19.932304"
         height="31.010195"
         width="199.61217"
         id="rect819"
         style="opacity:1;fill:#f5de5e;fill-opacity:1;stroke:none;stroke-width:1.69578099;stroke-miterlimit:4;stroke-dasharray:none;stroke-opacity:1" />
      <rect
         y="218.5323"
         x="83.082634"
         height="14.204792"
         width="139.40138"
         id="rect819-6"
         style="opacity:1;fill:#f5de5e;fill-opacity:1;stroke:none;stroke-width:0.95912439;stroke-miterlimit:4;stroke-dasharray:none;stroke-opacity:1" />
      <rect
         y="213.82835"
         x="128.95345"
         height="10.362146"
         width="97.986198"
         id="rect819-6-2"
         style="opacity:1;fill:#f5de5e;fill-opacity:1;stroke:none;stroke-width:0.68680155;stroke-miterlimit:4;stroke-dasharray:none;stroke-opacity:1" />
      <rect
         y="205.60101"
         x="168.52599"
         height="10.362146"
         width="60.413662"
         id="rect819-6-2-4"
         style="opacity:1;fill:#f5de5e;fill-opacity:1;stroke:none;stroke-width:0.53928256;stroke-miterlimit:4;stroke-dasharray:none;stroke-opacity:1" />
      <rect
         y="248.62566"
         x="14.954929"
         height="10.362146"
         width="163.95161"
         id="rect819-6-2-9"
         style="opacity:1;fill:#f5de5e;fill-opacity:1;stroke:none;stroke-width:0.88839614;stroke-miterlimit:4;stroke-dasharray:none;stroke-opacity:1" />
      <rect
         y="253.74918"
         x="33.527729"
         height="10.362146"
         width="97.986198"
         id="rect819-6-2-5"
         style="opacity:1;fill:#f5de5e;fill-opacity:1;stroke:none;stroke-width:0.68680155;stroke-miterlimit:4;stroke-dasharray:none;stroke-opacity:1" />
      <rect
         y="264.42319"
         x="10.044891"
         height="8.6543036"
         width="62.975426"
         id="rect819-6-2-6"
         style="opacity:1;fill:#f5de5e;fill-opacity:1;stroke:none;stroke-width:0.50318253;stroke-miterlimit:4;stroke-dasharray:none;stroke-opacity:1" />
      <rect
         y="259.33792"
         x="12.358566"
         height="8.6543036"
         width="63.188904"
         id="rect819-6-2-3"
         style="opacity:1;fill:#f5de5e;fill-opacity:1;stroke:none;stroke-width:0.5040347;stroke-miterlimit:4;stroke-dasharray:none;stroke-opacity:1" />
      <rect
         y="257.63007"
         x="12.358566"
         height="10.362146"
         width="96.491837"
         id="rect819-6-2-8"
         style="opacity:1;fill:#f5de5e;fill-opacity:1;stroke:none;stroke-width:0.6815443;stroke-miterlimit:4;stroke-dasharray:none;stroke-opacity:1" />
      <path
         inkscape:connector-curvature="0"
         id="path817"
         d="m 8.387501,279.41734 c -4.982447,-3.9095 -6.387505,-5.79632 -6.387505,-8.57762 0,-4.42089 11.136288,-43.877 12.889605,-45.66815 2.544579,-2.59947 18.666612,-6.90636 23.876195,-6.37835 2.34619,0.2378 4.529512,0.006 4.851826,-0.51585 0.322315,-0.52152 2.452705,-0.85616 4.7342,-0.74365 2.281496,0.11252 5.273179,-0.0997 6.648179,-0.47167 1.375,-0.37194 4.28117,-0.30409 6.45816,0.15077 3.0895,0.64551 4.73548,0.41886 7.5,-1.03274 2.75292,-1.44552 4.97067,-1.75468 9.956612,-1.388 4.64629,0.3417 8.89903,-0.15622 15.42582,-1.80609 5.816287,-1.47026 9.941027,-2.01112 11.634157,-1.52554 1.44271,0.41376 4.98405,0.52544 7.86965,0.24817 4.52529,-0.43482 5.59014,-0.18133 7.74601,1.84401 2.08022,1.95426 2.78548,2.14165 4.20453,1.11718 8.35237,-6.02994 12.56817,-7.49287 17.59378,-6.10524 2.40178,0.66317 5.00125,0.51566 8.92548,-0.50647 3.04522,-0.79318 6.50719,-1.18837 7.69326,-0.87821 1.27268,0.33281 3.71899,-0.31424 5.96897,-1.5788 5.34999,-3.00686 11.71578,-3.70667 16.29878,-1.79177 3.36517,1.40606 4.21375,1.40412 8.97077,-0.0205 2.88971,-0.86541 7.72902,-1.92568 10.75402,-2.35616 3.025,-0.43047 8.2224,-1.57008 11.54979,-2.53247 3.53737,-1.02313 7.1587,-1.47148 8.72001,-1.07961 4.01342,1.0073 10.7302,7.83061 10.7302,10.90038 0,1.40961 -1.82868,8.9365 -4.06373,16.72643 -2.77054,9.65626 -3.85929,15.0943 -3.42131,17.08845 2.08715,9.50272 -8.44368,18.25673 -17.86434,14.85017 -2.78446,-1.00687 -3.8277,-1.01622 -4.99817,-0.0448 -0.81357,0.6752 -3.4307,1.13715 -5.81583,1.02654 -2.38514,-0.1106 -6.4188,0.51752 -8.96368,1.39584 -3.0814,1.06348 -5.58676,1.32978 -7.5,0.7972 -2.16802,-0.60351 -4.03027,-0.22231 -7.5897,1.5536 -5.07591,2.53254 -11.19961,3.03201 -15.14329,1.23515 -1.93798,-0.883 -3.40899,-0.75353 -6.994,0.6156 -2.72723,1.04154 -6.05829,1.54506 -8.3429,1.2611 -2.58119,-0.32083 -5.08504,0.16986 -7.79324,1.52726 -4.42985,2.22032 -12.83631,2.68023 -16.1894,0.88571 -1.65762,-0.88713 -3.65294,-0.58604 -9.78978,1.47729 -6.40765,2.15439 -8.1366,2.39616 -10.249817,1.43331 -2.08057,-0.94797 -3.71034,-0.76942 -8.97808,0.98357 -3.60922,1.20107 -7.81947,1.93874 -9.58577,1.6795 -1.73235,-0.25425 -4.731802,0.19876 -6.665452,1.00669 -2.39937,1.00252 -5.17296,1.27419 -8.7348,0.85556 -4.52235,-0.53151 -5.71852,-0.27445 -8.96049,1.92561 -3.586786,2.43405 -4.239806,2.52391 -15.798829,2.17387 -9.744589,-0.2951 -13.094461,-0.0143 -17.463946,1.46399 -7.35212,2.48735 -9.188057,2.32376 -13.705945,-1.22122 z M 33.40055,266.46769 c 2.062388,-7.48045 1.6446,-8.10826 -3.974143,-5.97202 -3.275168,1.24522 -3.851798,0.80303 -3.061099,-2.34736 0.45446,-1.81071 1.711352,-2.72215 5.038578,-3.65371 3.393279,-0.95006 4.580886,-1.83012 5.06326,-3.75205 0.835509,-3.32893 0.248856,-3.72011 -3.578261,-2.38597 -1.767262,0.61607 -3.391595,0.94174 -3.609628,0.7237 -0.218033,-0.21803 0.26245,-1.97332 1.06774,-3.90065 1.234447,-2.95445 2.099999,-3.61166 5.516854,-4.18894 2.535246,-0.42833 4.220727,-1.30967 4.501472,-2.35385 1.944545,-7.23232 1.909451,-7.45378 -1.065956,-6.72649 -9.201362,2.2491 -13.249431,3.83275 -13.711088,5.36393 -0.849411,2.81724 -9.588283,35.29914 -9.588283,35.63911 0,1.10718 17.060578,-5.21258 17.400554,-6.4457 z m 12.265195,-0.94749 c 2.970591,-5.28455 4.291758,-5.07119 4.318938,0.69749 0.01819,3.86001 0.208256,3.90656 4.125608,1.01033 l 3.02932,-2.23966 -0.68294,-8.1986 -0.68294,-8.19859 6.1203,-8.79614 c 5.2926,-7.60657 5.88266,-8.89017 4.36313,-9.49146 -2.9212,-1.15592 -3.10839,-1.02918 -6.88853,4.66412 -4.08018,6.14519 -5.36218,6.80021 -5.38229,2.75 -0.007,-1.5125 -0.29208,-3.78961 -0.63239,-5.06026 l -0.61873,-2.31025 -2.915975,2.79368 c -2.875438,2.75484 -2.906528,2.90197 -2.236446,10.58364 l 0.679527,7.78996 -4.458537,6.72662 c -2.452196,3.69963 -5.262975,7.96411 -6.246176,9.47661 l -1.787638,2.75 H 39.3273 c 3.222337,0 3.819218,-0.4659 6.338445,-4.94749 z m 25.649996,-0.17747 c 3.89409,-2.00558 6.684262,-5.16936 6.684262,-7.57929 v -2.35562 l -3.041482,2.24866 c -6.24871,4.61987 -8.88765,-1.7255 -4.4715,-10.7518 2.86289,-5.85153 6.598952,-9.43699 9.833392,-9.43699 2.49816,0 6.67959,-3.73992 6.67959,-5.97431 0,-2.31701 -2.01597,-4.02569 -4.74966,-4.02569 -9.060292,0 -20.669102,16.57674 -20.724442,29.59335 -0.0159,3.72838 0.50677,6.73634 1.34654,7.75 1.58779,1.91659 5.30041,2.15038 8.4433,0.53169 z m 21.331002,-4.11098 c 6.87926,-2.02522 7.16816,-2.23599 7.719167,-5.6315 0.31485,-1.94015 0.37748,-3.72251 0.13918,-3.9608 -0.2383,-0.2383 -2.288697,0.0377 -4.556457,0.61331 l -4.12319,1.04658 0.66856,-2.66378 c 0.36771,-1.46507 0.74449,-2.71559 0.83728,-2.77892 0.0928,-0.0633 2.19372,-0.77395 4.66872,-1.57916 3.754707,-1.22156 4.554597,-1.9295 4.829697,-4.27448 0.23592,-2.01105 -0.0485,-2.66814 -1,-2.31011 -4.857827,1.82792 -5.829697,1.87401 -5.829697,0.27645 0,-3.30512 2.14843,-5.51023 6.415427,-6.58467 3.94521,-0.99342 4.40662,-1.433 4.93742,-4.70389 0.32203,-1.98444 0.42968,-3.76389 0.23923,-3.95434 -0.19045,-0.19045 -3.66408,0.48521 -7.719177,1.50147 l -7.3729,1.84775 -3.1323,10.94602 c -7.69377,26.88634 -7.42538,25.68226 -5.56522,24.96688 0.93363,-0.35907 4.91355,-1.59963 8.84426,-2.75681 z m 17.698017,-1.89383 c 3.93538,-1.17138 7.43816,-2.40888 7.78395,-2.75 0.34579,-0.34113 0.92262,-2.27541 1.28184,-4.29841 l 0.65313,-3.67819 -3.59145,0.99165 c -1.9753,0.54541 -3.98711,0.85059 -4.4707,0.67818 -0.48359,-0.1724 1.04148,-6.05096 3.38905,-13.06346 2.34757,-7.0125 3.96221,-12.75 3.58809,-12.75 -0.37412,0 -2.00477,0.46174 -3.62367,1.02609 -2.79839,0.97552 -3.19392,1.88723 -8.02584,18.5 -2.79532,9.61065 -4.87028,17.47391 -4.61102,17.47391 0.25926,0 3.69124,-0.9584 7.62662,-2.12977 z m 18.97905,0.19676 C 135.56841,257.16048 145,246.11449 145,241.1752 v -2.99242 l -5.95346,0.62226 c -3.27441,0.34224 -6.19328,0.23424 -6.48638,-0.24001 -0.2931,-0.47425 0.42522,-2.08033 1.59627,-3.56908 1.61878,-2.05795 2.74986,-2.58817 4.71842,-2.21185 4.11378,0.7864 7.93289,-1.77465 8.69365,-5.82986 1.5736,-8.38801 -4.70507,-7.56604 -13.9283,1.82342 -5.89739,6.00368 -10.93299,14.76345 -9.95377,17.31526 0.63812,1.66292 1.19885,1.68426 6.8523,0.2607 2.4334,-0.61274 5.22017,-0.80475 6.19282,-0.42669 1.57107,0.61065 1.4553,0.95821 -1.03731,3.11406 -1.60716,1.39003 -4.06981,2.4267 -5.7647,2.4267 -2.26515,0 -3.42356,0.76204 -4.9405,3.25 -1.08986,1.7875 -1.98325,3.8125 -1.9853,4.5 -0.004,1.47849 2.88403,1.62337 6.32007,0.31699 z M 30.749996,258.8374 c 1.2375,-0.33163 2.25,-1.00049 2.25,-1.48634 0,-1.45098 -3.658485,-0.9998 -5,0.61663 -1.345248,1.62092 -0.752567,1.80837 2.75,0.86971 z m 119.885264,-4.51932 c 0.6244,-0.49766 1.842,-3.71835 2.70578,-7.15708 0.86378,-3.43873 3.13224,-10.73465 5.04102,-16.21316 1.90878,-5.4785 3.31086,-10.12056 3.11573,-10.31569 -0.19513,-0.19513 -1.72806,-0.0532 -3.40652,0.31549 -2.86233,0.62868 -3.23448,1.27077 -5.99588,10.34516 C 147.69567,245.75094 145,255.09698 145,255.89289 c 0,0.84096 4.01045,-0.27979 5.63526,-1.57481 z m 21.12753,-1.79352 c 7.31148,-5.2964 14.17152,-17.24089 14.97201,-26.06878 0.5889,-6.4945 -0.67264,-9.6834 -4.17891,-10.56342 -10.72837,-2.69265 -28.44214,24.77888 -23.56686,36.54884 1.07836,2.60339 1.77487,3.02649 4.98225,3.02649 2.53995,0 5.02389,-0.93827 7.79151,-2.94313 z m -5.15742,-5.59435 c -2.10646,-2.10647 -2.02781,-3.02385 0.76844,-8.96252 4.8678,-10.33823 11.74654,-13.97951 12.45139,-6.59118 0.87829,9.20629 -8.51529,20.25824 -13.21983,15.5537 z m 6.28452,-1.82984 c 0.8609,-1.03733 0.78521,-1.65743 -0.31364,-2.5694 -1.77391,-1.47221 -5.57625,0.21333 -5.57625,2.4719 0,1.87217 4.35718,1.94429 5.88989,0.0975 z m 17.17368,4.54656 c 0.30996,-0.37358 1.38499,-3.37924 2.38896,-6.67924 1.98827,-6.53536 2.37614,-6.34103 4.5588,2.28411 l 1.08413,4.28411 2.79108,-1.98743 c 5.16642,-3.67881 5.37305,-4.34816 3.11269,-10.08274 l -2.05984,-5.22585 4.48957,-4.79971 c 6.58655,-7.04155 7.46346,-12.97249 1.91803,-12.97249 -1.49368,0 -5.31591,0.72956 -8.49385,1.62124 -5.01113,1.40606 -5.90936,2.03653 -6.76724,4.75 -2.70446,8.55416 -9.0859,29.84351 -9.0859,30.3118 0,0.69927 5.33306,-0.62336 6.06357,-1.5038 z M 196,230.93557 c 0,-0.29266 0.65204,-2.09266 1.44897,-4 1.11654,-2.67224 2.03426,-3.46788 4,-3.46788 3.46938,0 3.25254,2.23193 -0.5257,5.41111 C 198.04075,231.30429 196,232.15684 196,230.93557 Z m -61.86078,17.44842 c 1.58674,-1.40052 1.81029,-1.91155 0.68179,-1.55864 -0.92344,0.28879 -3.33045,0.83489 -5.34891,1.21355 -2.56792,0.48175 -3.26488,0.94518 -2.32102,1.54333 2.21122,1.40129 4.48457,1.01148 6.98814,-1.19824 z m 81.3393,-0.53768 c 2.00985,-2.00984 1.59599,-4.74059 -0.78804,-5.19971 -2.48387,-0.47835 -4.69048,1.61208 -4.69048,4.44353 0,2.84119 2.98193,3.25278 5.47852,0.75618 z M 35.296069,246.46769 c 0.622874,0 0.344796,-0.7875 -0.617951,-1.75 -1.530927,-1.53053 -1.869403,-1.56189 -2.698973,-0.25 -1.417204,2.24117 -1.174958,3.28912 0.602638,2.60699 0.869984,-0.33385 2.091412,-0.60699 2.714286,-0.60699 z M 210,239.96769 c -0.68469,-0.825 -1.69489,-1.5 -2.24489,-1.5 -0.55783,0 -0.44954,0.66326 0.24489,1.5 0.68469,0.825 1.69489,1.5 2.24489,1.5 0.55783,0 0.44954,-0.66326 -0.24489,-1.5 z m 9.94574,-14.67638 c 1.84379,-6.77799 3.5672,-12.90898 3.82979,-13.62442 0.57606,-1.56951 -4.59696,-0.6219 -6.41408,1.17495 -0.6262,0.61922 -1.86686,6.30085 -2.75701,12.62585 -2.04084,14.50131 -2.04371,14.30546 0.19226,13.1088 1.22844,-0.65744 2.85696,-4.85921 5.14904,-13.28518 z M 39.549675,228.5888 c -1.289491,-1.28949 -2.441391,-1.2446 -9.51416,0.37078 -7.508658,1.71493 -7.942674,1.95322 -6.487094,3.56162 1.474449,1.62925 1.995916,1.60892 9.514161,-0.37078 6.991177,-1.84092 7.776584,-2.27213 6.487093,-3.56162 z m 9.802103,3.0336 c 2.351178,-2.45411 2.523177,-3.0136 1.251013,-4.0694 -2.513292,-2.08584 -8.427484,2.3232 -7.246055,5.40196 0.87876,2.29001 2.969667,1.82525 5.995042,-1.33256 z m 30.196375,-5.15471 c 2.41944,0 1.14731,-2.44843 -1.47142,-2.83199 -1.24664,-0.1826 -3.588692,0.21562 -5.204552,0.88493 -2.79581,1.15807 -2.85591,1.30756 -1.24242,3.09044 1.54294,1.70493 1.90266,1.73778 3.99769,0.36507 1.266202,-0.82965 3.030522,-1.50845 3.920702,-1.50845 z m -15.048152,1 c -0.33992,-0.55 -1.06804,-1 -1.61804,-1 -0.55,0 -0.72188,0.45 -0.38196,1 0.33991,0.55 1.06803,1 1.61803,1 0.55,0 0.72188,-0.45 0.38197,-1 z m 71.846299,-3.25 c 2.39998,-1.7875 5.20558,-3.74224 6.23467,-4.34386 1.78949,-1.04617 1.77441,-1.14558 -0.34592,-2.28035 -1.76738,-0.94587 -2.77653,-0.88681 -4.97602,0.2912 -5.25048,2.81208 -8.62929,6.17575 -7.95876,7.92311 0.90617,2.36146 2.10316,2.09133 7.04603,-1.5901 z m -36.604937,0.58201 c 6.745427,-1.57764 7.134727,-1.81145 5.684357,-3.41409 -1.21517,-1.34274 -2.2561,-1.53664 -4.74136,-0.88321 -1.751397,0.46049 -5.130127,1.34237 -7.508287,1.95973 -3.59965,0.93445 -4.12354,1.36393 -3.12756,2.56401 1.48676,1.79144 1.0183,1.80238 9.69285,-0.22644 z m 17.605587,-1.19939 c 1.67099,-0.65756 1.69585,-0.85221 0.26096,-2.04306 -1.05188,-0.87299 -2.79308,-1.0898 -5.17036,-0.64382 -2.97689,0.55847 -3.38169,0.91664 -2.38851,2.11334 1.27202,1.53269 4.26317,1.76777 7.29791,0.57354 z m 60.92993,-8.68491 c 2.31649,-0.56561 2.57287,-0.92382 1.54638,-2.16066 -1.61216,-1.94254 -6.85946,-1.10952 -10.83276,1.71972 -3.17733,2.26245 -3.70132,3.88241 -1.85349,5.73024 0.84936,0.84936 2.0511,0.40987 4.75,-1.73713 1.98715,-1.58079 4.86258,-3.17926 6.38987,-3.55217 z m -19.66879,4.51119 c 2.38517,-0.90684 2.55232,-1.22706 1.29619,-2.48319 -2.08672,-2.08673 -9.64577,-0.0741 -7.84972,2.09004 1.41511,1.7051 2.87284,1.79255 6.55353,0.39315 z M 199,214.96769 c 2.3383,-0.825 5.65738,-1.51431 7.37573,-1.5318 2.96353,-0.0302 3.0244,-0.10734 1.18314,-1.5 -2.48787,-1.88173 -5.88802,-1.85659 -12.44981,0.0921 -4.38291,1.30159 -5.05584,1.79895 -4.05905,3 1.50454,1.81287 2.66594,1.80407 7.94999,-0.0602 z m 22.34695,-5.36738 c 1.67099,-0.65756 1.69585,-0.85221 0.26096,-2.04306 -1.05188,-0.87299 -2.79308,-1.0898 -5.17036,-0.64382 -2.97689,0.55847 -3.38169,0.91664 -2.38851,2.11334 1.27202,1.53269 4.26317,1.76777 7.29791,0.57354 z"
         style="fill:#c62b29;fill-opacity:1" />
      <rect
         y="235.71909"
         x="206.47076"
         height="6.7512918"
         width="5.3997593"
         id="rect964"
         style="opacity:1;fill:#c62b29;fill-opacity:1;stroke:none;stroke-width:0.61110109;stroke-miterlimit:4;stroke-dasharray:none;stroke-opacity:1" />
    </g>
  </g>
</svg>
